<svg width="44" height="45" viewBox="0 0 44 45" fill="none" xmlns="http://www.w3.org/2000/svg">
<path d="M33 11.1118H33.02M12 2.11182H32C37.5228 2.11182 42 6.58897 42 12.1118V32.1118C42 37.6347 37.5228 42.1118 32 42.1118H12C6.47715 42.1118 2 37.6347 2 32.1118V12.1118C2 6.58897 6.47715 2.11182 12 2.11182ZM30 20.8518C30.2468 22.5163 29.9625 24.2162 29.1875 25.7098C28.4125 27.2034 27.1863 28.4146 25.6833 29.1712C24.1802 29.9277 22.4769 30.191 20.8156 29.9237C19.1543 29.6564 17.6195 28.872 16.4297 27.6821C15.2398 26.4923 14.4555 24.9576 14.1881 23.2962C13.9208 21.6349 14.1841 19.9316 14.9407 18.4286C15.6972 16.9255 16.9084 15.6993 18.402 14.9243C19.8956 14.1493 21.5955 13.865 23.26 14.1118C24.9578 14.3636 26.5297 15.1547 27.7434 16.3684C28.9571 17.5821 29.7482 19.154 30 20.8518Z" stroke="#F3F3F3" stroke-width="4" stroke-linecap="round" stroke-linejoin="round"/>
</svg>
