<svg width="48" height="49" viewBox="0 0 48 49" fill="none" xmlns="http://www.w3.org/2000/svg">
<g clip-path="url(#clip0_22_80)">
<path d="M45.08 12.9518C44.8424 12.0026 44.3586 11.133 43.6773 10.4306C42.996 9.7283 42.1415 9.21819 41.2 8.95182C37.76 8.11182 24 8.11182 24 8.11182C24 8.11182 10.24 8.11182 6.8 9.03182C5.85849 9.29819 5.00395 9.8083 4.32269 10.5106C3.64143 11.213 3.15758 12.0826 2.92 13.0318C2.29043 16.5229 1.98247 20.0644 2 23.6118C1.97756 27.1859 2.28553 30.7544 2.92 34.2718C3.18192 35.1915 3.67661 36.0281 4.35629 36.7008C5.03596 37.3734 5.87764 37.8594 6.8 38.1118C10.24 39.0318 24 39.0318 24 39.0318C24 39.0318 37.76 39.0318 41.2 38.1118C42.1415 37.8454 42.996 37.3353 43.6773 36.633C44.3586 35.9307 44.8424 35.061 45.08 34.1118C45.7047 30.647 46.0127 27.1325 46 23.6118C46.0224 20.0377 45.7145 16.4692 45.08 12.9518Z" stroke="#F3F3F3" stroke-width="4" stroke-linecap="round" stroke-linejoin="round"/>
<path d="M19.5 30.1518L31 23.6118L19.5 17.0718V30.1518Z" stroke="#F3F3F3" stroke-width="4" stroke-linecap="round" stroke-linejoin="round"/>
</g>
<defs>
<clipPath id="clip0_22_80">
<rect width="48" height="48" fill="white" transform="translate(0 0.111816)"/>
</clipPath>
</defs>
</svg>
