<svg width="48" height="40" viewBox="0 0 48 40" fill="none" xmlns="http://www.w3.org/2000/svg">
<path d="M46 2.11179C44.0848 3.46274 41.9642 4.49601 39.72 5.17179C38.5155 3.78681 36.9147 2.80517 35.1341 2.35964C33.3535 1.91411 31.479 2.02618 29.7642 2.68069C28.0493 3.33521 26.5769 4.50059 25.546 6.01922C24.515 7.53785 23.9754 9.33646 24 11.1718V13.1718C20.4853 13.2629 17.0025 12.4834 13.862 10.9027C10.7215 9.32194 8.02063 6.98906 6 4.11179C6 4.11179 -2 22.1118 16 30.1118C11.8811 32.9077 6.97431 34.3096 2 34.1118C20 44.1118 42 34.1118 42 11.1118C41.9982 10.5547 41.9446 9.99898 41.84 9.45179C43.8812 7.43877 45.3217 4.89721 46 2.11179Z" stroke="#F3F3F3" stroke-width="4" stroke-linecap="round" stroke-linejoin="round"/>
</svg>
